<mxfile host="app.diagrams.net" modified="2022-06-26T14:58:01.527Z" agent="5.0 (Windows NT 10.0; Win64; x64) AppleWebKit/537.36 (KHTML, like Gecko) Chrome/102.0.0.0 Safari/537.36" etag="pSjGLcPfqw4LGYlZBlqb" version="20.0.3" type="github">
  <diagram id="_pQXIOqqfDNLPfqdppsy" name="Page-1">
    <mxGraphModel dx="1038" dy="583" grid="1" gridSize="10" guides="1" tooltips="1" connect="1" arrows="1" fold="1" page="1" pageScale="1" pageWidth="850" pageHeight="1100" math="0" shadow="0">
      <root>
        <mxCell id="0" />
        <mxCell id="1" parent="0" />
        <mxCell id="-KFrz3fNhtlWnRIcD0WV-1" value="Palindromo" style="swimlane;fontStyle=1;align=center;verticalAlign=top;childLayout=stackLayout;horizontal=1;startSize=26;horizontalStack=0;resizeParent=1;resizeParentMax=0;resizeLast=0;collapsible=1;marginBottom=0;" vertex="1" parent="1">
          <mxGeometry x="70" y="50" width="270" height="210" as="geometry" />
        </mxCell>
        <mxCell id="-KFrz3fNhtlWnRIcD0WV-2" value="str : String&#xa;palindromo : boolean&#xa;qtdeVogais : int&#xa;strInvertida : String" style="text;strokeColor=none;fillColor=none;align=left;verticalAlign=top;spacingLeft=4;spacingRight=4;overflow=hidden;rotatable=0;points=[[0,0.5],[1,0.5]];portConstraint=eastwest;" vertex="1" parent="-KFrz3fNhtlWnRIcD0WV-1">
          <mxGeometry y="26" width="270" height="74" as="geometry" />
        </mxCell>
        <mxCell id="-KFrz3fNhtlWnRIcD0WV-3" value="" style="line;strokeWidth=1;fillColor=none;align=left;verticalAlign=middle;spacingTop=-1;spacingLeft=3;spacingRight=3;rotatable=0;labelPosition=right;points=[];portConstraint=eastwest;" vertex="1" parent="-KFrz3fNhtlWnRIcD0WV-1">
          <mxGeometry y="100" width="270" height="8" as="geometry" />
        </mxCell>
        <mxCell id="-KFrz3fNhtlWnRIcD0WV-4" value="Palindromo()&#xa;Palindromo(palavra : String)&#xa;contaVogal(palavra : String) : int&#xa;ehPalindromo(palavra : String) : boolean&#xa;invertePalavra(palavra : String) : String" style="text;strokeColor=none;fillColor=none;align=left;verticalAlign=top;spacingLeft=4;spacingRight=4;overflow=hidden;rotatable=0;points=[[0,0.5],[1,0.5]];portConstraint=eastwest;" vertex="1" parent="-KFrz3fNhtlWnRIcD0WV-1">
          <mxGeometry y="108" width="270" height="102" as="geometry" />
        </mxCell>
        <mxCell id="-KFrz3fNhtlWnRIcD0WV-7" value="&lt;p style=&quot;margin:0px;margin-top:4px;text-align:center;text-decoration:underline;&quot;&gt;&lt;b&gt;p1:Palindromo&lt;/b&gt;&lt;/p&gt;&lt;hr&gt;&lt;p style=&quot;margin:0px;margin-left:8px;&quot;&gt;field1 = value1&lt;br&gt;field2 = value2&lt;br&gt;field3 = value3&lt;/p&gt;" style="verticalAlign=top;align=left;overflow=fill;fontSize=12;fontFamily=Helvetica;html=1;" vertex="1" parent="1">
          <mxGeometry x="390" y="130" width="160" height="30" as="geometry" />
        </mxCell>
      </root>
    </mxGraphModel>
  </diagram>
</mxfile>
